M48
; DRILL file KiCad 10.0.2 date 2026-06-30T00:31:09
; FORMAT={-:-/ absolute / metric / decimal}
; #@! TF.CreationDate,2026-06-30T00:31:09+02:00
; #@! TF.GenerationSoftware,Kicad,Pcbnew,10.0.2
; #@! TF.FileFunction,Plated,1,4,PTH
FMAT,2
METRIC
; #@! TA.AperFunction,Plated,PTH,ComponentDrill
T1C0.200
; #@! TA.AperFunction,Plated,PTH,ViaDrill
T2C0.300
; #@! TA.AperFunction,Plated,PTH,ComponentDrill
T3C0.600
; #@! TA.AperFunction,Plated,PTH,ComponentDrill
T4C1.000
%
G90
G05
T1
X141.26Y-75.05
X141.26Y-76.15
X141.81Y-74.5
X141.81Y-75.6
X141.81Y-76.7
X142.36Y-75.05
X142.36Y-76.15
X142.91Y-74.5
X142.91Y-75.6
X142.91Y-76.7
X143.46Y-75.05
X143.46Y-76.15
T2
X129.01Y-101.52
X132.54Y-101.53
X134.06Y-69.17
X134.063Y-70.05
X134.16Y-73.92
X134.17Y-72.39
X135.0Y-71.26
X135.1Y-72.4
X135.1Y-73.9
X136.21Y-98.61
X136.221Y-97.81
X137.02Y-97.32
X139.4Y-92.8
X139.47Y-87.17
X139.49Y-86.41
X139.57Y-99.53
X140.2Y-92.8
X140.22Y-87.19
X140.26Y-86.44
X144.44Y-99.46
X145.21Y-91.46
X147.77Y-78.43
X147.86Y-79.88
X147.88Y-81.42
X148.69Y-78.42
X148.7Y-79.9
X148.73Y-81.41
X151.598Y-70.74
X151.61Y-69.96
X152.45Y-70.27
X153.78Y-101.64
X154.8Y-101.61
T4
X127.55Y-70.83
X127.55Y-73.37
X127.55Y-75.91
X127.55Y-78.45
X127.55Y-80.99
X127.55Y-83.53
X127.55Y-86.07
X127.55Y-88.61
X155.49Y-70.83
X155.49Y-73.37
X155.49Y-75.91
X155.49Y-78.45
X155.49Y-80.99
X155.49Y-83.53
X155.49Y-86.07
X155.49Y-88.61
T3
G00X137.63Y-100.51
M15
G01X137.63Y-101.61
M16
G05
G00X137.63Y-104.86
M15
G01X137.63Y-105.66
M16
G05
G00X146.27Y-100.51
M15
G01X146.27Y-101.61
M16
G05
G00X146.27Y-104.86
M15
G01X146.27Y-105.66
M16
G05
M30
