%TF.GenerationSoftware,KiCad,Pcbnew,10.0.2*%
%TF.CreationDate,2026-06-30T00:31:04+02:00*%
%TF.ProjectId,ESP32_C3_Mini,45535033-325f-4433-935f-4d696e692e6b,rev?*%
%TF.SameCoordinates,Original*%
%TF.FileFunction,Legend,Top*%
%TF.FilePolarity,Positive*%
%FSLAX46Y46*%
G04 Gerber Fmt 4.6, Leading zero omitted, Abs format (unit mm)*
G04 Created by KiCad (PCBNEW 10.0.2) date 2026-06-30 00:31:04*
%MOMM*%
%LPD*%
G01*
G04 APERTURE LIST*
%ADD10C,0.125000*%
%ADD11C,0.200000*%
%ADD12C,0.093750*%
%ADD13C,0.187500*%
%ADD14C,0.120000*%
G04 APERTURE END LIST*
D10*
X146149378Y-90611714D02*
X146613664Y-90611714D01*
X146613664Y-90611714D02*
X146363664Y-90897428D01*
X146363664Y-90897428D02*
X146470807Y-90897428D01*
X146470807Y-90897428D02*
X146542236Y-90933142D01*
X146542236Y-90933142D02*
X146577950Y-90968857D01*
X146577950Y-90968857D02*
X146613664Y-91040285D01*
X146613664Y-91040285D02*
X146613664Y-91218857D01*
X146613664Y-91218857D02*
X146577950Y-91290285D01*
X146577950Y-91290285D02*
X146542236Y-91326000D01*
X146542236Y-91326000D02*
X146470807Y-91361714D01*
X146470807Y-91361714D02*
X146256521Y-91361714D01*
X146256521Y-91361714D02*
X146185093Y-91326000D01*
X146185093Y-91326000D02*
X146149378Y-91290285D01*
X146827950Y-90611714D02*
X147077950Y-91361714D01*
X147077950Y-91361714D02*
X147327950Y-90611714D01*
X147506521Y-90611714D02*
X147970807Y-90611714D01*
X147970807Y-90611714D02*
X147720807Y-90897428D01*
X147720807Y-90897428D02*
X147827950Y-90897428D01*
X147827950Y-90897428D02*
X147899379Y-90933142D01*
X147899379Y-90933142D02*
X147935093Y-90968857D01*
X147935093Y-90968857D02*
X147970807Y-91040285D01*
X147970807Y-91040285D02*
X147970807Y-91218857D01*
X147970807Y-91218857D02*
X147935093Y-91290285D01*
X147935093Y-91290285D02*
X147899379Y-91326000D01*
X147899379Y-91326000D02*
X147827950Y-91361714D01*
X147827950Y-91361714D02*
X147613664Y-91361714D01*
X147613664Y-91361714D02*
X147542236Y-91326000D01*
X147542236Y-91326000D02*
X147506521Y-91290285D01*
X148863665Y-91361714D02*
X148863665Y-90611714D01*
X148863665Y-90611714D02*
X149149379Y-90611714D01*
X149149379Y-90611714D02*
X149220808Y-90647428D01*
X149220808Y-90647428D02*
X149256522Y-90683142D01*
X149256522Y-90683142D02*
X149292236Y-90754571D01*
X149292236Y-90754571D02*
X149292236Y-90861714D01*
X149292236Y-90861714D02*
X149256522Y-90933142D01*
X149256522Y-90933142D02*
X149220808Y-90968857D01*
X149220808Y-90968857D02*
X149149379Y-91004571D01*
X149149379Y-91004571D02*
X148863665Y-91004571D01*
X149542236Y-90611714D02*
X149720808Y-91361714D01*
X149720808Y-91361714D02*
X149863665Y-90826000D01*
X149863665Y-90826000D02*
X150006522Y-91361714D01*
X150006522Y-91361714D02*
X150185094Y-90611714D01*
X150899379Y-91361714D02*
X150649379Y-91004571D01*
X150470808Y-91361714D02*
X150470808Y-90611714D01*
X150470808Y-90611714D02*
X150756522Y-90611714D01*
X150756522Y-90611714D02*
X150827951Y-90647428D01*
X150827951Y-90647428D02*
X150863665Y-90683142D01*
X150863665Y-90683142D02*
X150899379Y-90754571D01*
X150899379Y-90754571D02*
X150899379Y-90861714D01*
X150899379Y-90861714D02*
X150863665Y-90933142D01*
X150863665Y-90933142D02*
X150827951Y-90968857D01*
X150827951Y-90968857D02*
X150756522Y-91004571D01*
X150756522Y-91004571D02*
X150470808Y-91004571D01*
D11*
X125660000Y-69350000D02*
X125660000Y-69350000D01*
G75*
G02*
X126360000Y-68650000I700000J0D01*
G01*
X156650000Y-68650000D01*
G75*
G02*
X157350000Y-69350000I0J-700000D01*
G01*
X157350000Y-107400000D01*
G75*
G02*
X156650000Y-108100000I-700000J0D01*
G01*
X126360000Y-108100000D01*
G75*
G02*
X125660000Y-107400000I0J700000D01*
G01*
X125660000Y-69350000D01*
X126262500Y-101500000D02*
X133987500Y-101500000D01*
X133987500Y-107250000D01*
X126262500Y-107250000D01*
X126262500Y-101500000D01*
X127850000Y-99825000D02*
X132400000Y-99825000D01*
X132400000Y-101500000D01*
X127850000Y-101500000D01*
X127850000Y-99825000D01*
X149015000Y-101600000D02*
X156740000Y-101600000D01*
X156740000Y-107350000D01*
X149015000Y-107350000D01*
X149015000Y-101600000D01*
X150602500Y-99925000D02*
X155152500Y-99925000D01*
X155152500Y-101600000D01*
X150602500Y-101600000D01*
X150602500Y-99925000D01*
D12*
X129012856Y-70334589D02*
X129477142Y-70334589D01*
X129477142Y-70334589D02*
X129227142Y-70620303D01*
X129227142Y-70620303D02*
X129334285Y-70620303D01*
X129334285Y-70620303D02*
X129405714Y-70656017D01*
X129405714Y-70656017D02*
X129441428Y-70691732D01*
X129441428Y-70691732D02*
X129477142Y-70763160D01*
X129477142Y-70763160D02*
X129477142Y-70941732D01*
X129477142Y-70941732D02*
X129441428Y-71013160D01*
X129441428Y-71013160D02*
X129405714Y-71048875D01*
X129405714Y-71048875D02*
X129334285Y-71084589D01*
X129334285Y-71084589D02*
X129119999Y-71084589D01*
X129119999Y-71084589D02*
X129048571Y-71048875D01*
X129048571Y-71048875D02*
X129012856Y-71013160D01*
X129798571Y-71013160D02*
X129834285Y-71048875D01*
X129834285Y-71048875D02*
X129798571Y-71084589D01*
X129798571Y-71084589D02*
X129762857Y-71048875D01*
X129762857Y-71048875D02*
X129798571Y-71013160D01*
X129798571Y-71013160D02*
X129798571Y-71084589D01*
X130084285Y-70334589D02*
X130548571Y-70334589D01*
X130548571Y-70334589D02*
X130298571Y-70620303D01*
X130298571Y-70620303D02*
X130405714Y-70620303D01*
X130405714Y-70620303D02*
X130477143Y-70656017D01*
X130477143Y-70656017D02*
X130512857Y-70691732D01*
X130512857Y-70691732D02*
X130548571Y-70763160D01*
X130548571Y-70763160D02*
X130548571Y-70941732D01*
X130548571Y-70941732D02*
X130512857Y-71013160D01*
X130512857Y-71013160D02*
X130477143Y-71048875D01*
X130477143Y-71048875D02*
X130405714Y-71084589D01*
X130405714Y-71084589D02*
X130191428Y-71084589D01*
X130191428Y-71084589D02*
X130120000Y-71048875D01*
X130120000Y-71048875D02*
X130084285Y-71013160D01*
X130762857Y-70334589D02*
X131012857Y-71084589D01*
X131012857Y-71084589D02*
X131262857Y-70334589D01*
X129548571Y-72941017D02*
X129477143Y-72905303D01*
X129477143Y-72905303D02*
X129370000Y-72905303D01*
X129370000Y-72905303D02*
X129262857Y-72941017D01*
X129262857Y-72941017D02*
X129191428Y-73012446D01*
X129191428Y-73012446D02*
X129155714Y-73083874D01*
X129155714Y-73083874D02*
X129120000Y-73226731D01*
X129120000Y-73226731D02*
X129120000Y-73333874D01*
X129120000Y-73333874D02*
X129155714Y-73476731D01*
X129155714Y-73476731D02*
X129191428Y-73548160D01*
X129191428Y-73548160D02*
X129262857Y-73619589D01*
X129262857Y-73619589D02*
X129370000Y-73655303D01*
X129370000Y-73655303D02*
X129441428Y-73655303D01*
X129441428Y-73655303D02*
X129548571Y-73619589D01*
X129548571Y-73619589D02*
X129584285Y-73583874D01*
X129584285Y-73583874D02*
X129584285Y-73333874D01*
X129584285Y-73333874D02*
X129441428Y-73333874D01*
X129905714Y-73655303D02*
X129905714Y-72905303D01*
X129905714Y-72905303D02*
X130334285Y-73655303D01*
X130334285Y-73655303D02*
X130334285Y-72905303D01*
X130691428Y-73655303D02*
X130691428Y-72905303D01*
X130691428Y-72905303D02*
X130869999Y-72905303D01*
X130869999Y-72905303D02*
X130977142Y-72941017D01*
X130977142Y-72941017D02*
X131048571Y-73012446D01*
X131048571Y-73012446D02*
X131084285Y-73083874D01*
X131084285Y-73083874D02*
X131119999Y-73226731D01*
X131119999Y-73226731D02*
X131119999Y-73333874D01*
X131119999Y-73333874D02*
X131084285Y-73476731D01*
X131084285Y-73476731D02*
X131048571Y-73548160D01*
X131048571Y-73548160D02*
X130977142Y-73619589D01*
X130977142Y-73619589D02*
X130869999Y-73655303D01*
X130869999Y-73655303D02*
X130691428Y-73655303D01*
X129566429Y-75833161D02*
X129816429Y-75833161D01*
X129923572Y-76226018D02*
X129566429Y-76226018D01*
X129566429Y-76226018D02*
X129566429Y-75476018D01*
X129566429Y-75476018D02*
X129923572Y-75476018D01*
X130245000Y-76226018D02*
X130245000Y-75476018D01*
X130245000Y-75476018D02*
X130673571Y-76226018D01*
X130673571Y-76226018D02*
X130673571Y-75476018D01*
X129370000Y-78796732D02*
X129370000Y-78046732D01*
X129870000Y-78046732D02*
X130012857Y-78046732D01*
X130012857Y-78046732D02*
X130084286Y-78082446D01*
X130084286Y-78082446D02*
X130155714Y-78153875D01*
X130155714Y-78153875D02*
X130191429Y-78296732D01*
X130191429Y-78296732D02*
X130191429Y-78546732D01*
X130191429Y-78546732D02*
X130155714Y-78689589D01*
X130155714Y-78689589D02*
X130084286Y-78761018D01*
X130084286Y-78761018D02*
X130012857Y-78796732D01*
X130012857Y-78796732D02*
X129870000Y-78796732D01*
X129870000Y-78796732D02*
X129798572Y-78761018D01*
X129798572Y-78761018D02*
X129727143Y-78689589D01*
X129727143Y-78689589D02*
X129691429Y-78546732D01*
X129691429Y-78546732D02*
X129691429Y-78296732D01*
X129691429Y-78296732D02*
X129727143Y-78153875D01*
X129727143Y-78153875D02*
X129798572Y-78082446D01*
X129798572Y-78082446D02*
X129870000Y-78046732D01*
X130834286Y-78296732D02*
X130834286Y-78796732D01*
X130655714Y-78011018D02*
X130477143Y-78546732D01*
X130477143Y-78546732D02*
X130941428Y-78546732D01*
X129370000Y-81367446D02*
X129370000Y-80617446D01*
X129870000Y-80617446D02*
X130012857Y-80617446D01*
X130012857Y-80617446D02*
X130084286Y-80653160D01*
X130084286Y-80653160D02*
X130155714Y-80724589D01*
X130155714Y-80724589D02*
X130191429Y-80867446D01*
X130191429Y-80867446D02*
X130191429Y-81117446D01*
X130191429Y-81117446D02*
X130155714Y-81260303D01*
X130155714Y-81260303D02*
X130084286Y-81331732D01*
X130084286Y-81331732D02*
X130012857Y-81367446D01*
X130012857Y-81367446D02*
X129870000Y-81367446D01*
X129870000Y-81367446D02*
X129798572Y-81331732D01*
X129798572Y-81331732D02*
X129727143Y-81260303D01*
X129727143Y-81260303D02*
X129691429Y-81117446D01*
X129691429Y-81117446D02*
X129691429Y-80867446D01*
X129691429Y-80867446D02*
X129727143Y-80724589D01*
X129727143Y-80724589D02*
X129798572Y-80653160D01*
X129798572Y-80653160D02*
X129870000Y-80617446D01*
X130870000Y-80617446D02*
X130512857Y-80617446D01*
X130512857Y-80617446D02*
X130477143Y-80974589D01*
X130477143Y-80974589D02*
X130512857Y-80938874D01*
X130512857Y-80938874D02*
X130584286Y-80903160D01*
X130584286Y-80903160D02*
X130762857Y-80903160D01*
X130762857Y-80903160D02*
X130834286Y-80938874D01*
X130834286Y-80938874D02*
X130870000Y-80974589D01*
X130870000Y-80974589D02*
X130905714Y-81046017D01*
X130905714Y-81046017D02*
X130905714Y-81224589D01*
X130905714Y-81224589D02*
X130870000Y-81296017D01*
X130870000Y-81296017D02*
X130834286Y-81331732D01*
X130834286Y-81331732D02*
X130762857Y-81367446D01*
X130762857Y-81367446D02*
X130584286Y-81367446D01*
X130584286Y-81367446D02*
X130512857Y-81331732D01*
X130512857Y-81331732D02*
X130477143Y-81296017D01*
X129370000Y-83938160D02*
X129370000Y-83188160D01*
X129870000Y-83188160D02*
X130012857Y-83188160D01*
X130012857Y-83188160D02*
X130084286Y-83223874D01*
X130084286Y-83223874D02*
X130155714Y-83295303D01*
X130155714Y-83295303D02*
X130191429Y-83438160D01*
X130191429Y-83438160D02*
X130191429Y-83688160D01*
X130191429Y-83688160D02*
X130155714Y-83831017D01*
X130155714Y-83831017D02*
X130084286Y-83902446D01*
X130084286Y-83902446D02*
X130012857Y-83938160D01*
X130012857Y-83938160D02*
X129870000Y-83938160D01*
X129870000Y-83938160D02*
X129798572Y-83902446D01*
X129798572Y-83902446D02*
X129727143Y-83831017D01*
X129727143Y-83831017D02*
X129691429Y-83688160D01*
X129691429Y-83688160D02*
X129691429Y-83438160D01*
X129691429Y-83438160D02*
X129727143Y-83295303D01*
X129727143Y-83295303D02*
X129798572Y-83223874D01*
X129798572Y-83223874D02*
X129870000Y-83188160D01*
X130834286Y-83188160D02*
X130691428Y-83188160D01*
X130691428Y-83188160D02*
X130620000Y-83223874D01*
X130620000Y-83223874D02*
X130584286Y-83259588D01*
X130584286Y-83259588D02*
X130512857Y-83366731D01*
X130512857Y-83366731D02*
X130477143Y-83509588D01*
X130477143Y-83509588D02*
X130477143Y-83795303D01*
X130477143Y-83795303D02*
X130512857Y-83866731D01*
X130512857Y-83866731D02*
X130548571Y-83902446D01*
X130548571Y-83902446D02*
X130620000Y-83938160D01*
X130620000Y-83938160D02*
X130762857Y-83938160D01*
X130762857Y-83938160D02*
X130834286Y-83902446D01*
X130834286Y-83902446D02*
X130870000Y-83866731D01*
X130870000Y-83866731D02*
X130905714Y-83795303D01*
X130905714Y-83795303D02*
X130905714Y-83616731D01*
X130905714Y-83616731D02*
X130870000Y-83545303D01*
X130870000Y-83545303D02*
X130834286Y-83509588D01*
X130834286Y-83509588D02*
X130762857Y-83473874D01*
X130762857Y-83473874D02*
X130620000Y-83473874D01*
X130620000Y-83473874D02*
X130548571Y-83509588D01*
X130548571Y-83509588D02*
X130512857Y-83545303D01*
X130512857Y-83545303D02*
X130477143Y-83616731D01*
X129370000Y-86508875D02*
X129370000Y-85758875D01*
X129870000Y-85758875D02*
X130012857Y-85758875D01*
X130012857Y-85758875D02*
X130084286Y-85794589D01*
X130084286Y-85794589D02*
X130155714Y-85866018D01*
X130155714Y-85866018D02*
X130191429Y-86008875D01*
X130191429Y-86008875D02*
X130191429Y-86258875D01*
X130191429Y-86258875D02*
X130155714Y-86401732D01*
X130155714Y-86401732D02*
X130084286Y-86473161D01*
X130084286Y-86473161D02*
X130012857Y-86508875D01*
X130012857Y-86508875D02*
X129870000Y-86508875D01*
X129870000Y-86508875D02*
X129798572Y-86473161D01*
X129798572Y-86473161D02*
X129727143Y-86401732D01*
X129727143Y-86401732D02*
X129691429Y-86258875D01*
X129691429Y-86258875D02*
X129691429Y-86008875D01*
X129691429Y-86008875D02*
X129727143Y-85866018D01*
X129727143Y-85866018D02*
X129798572Y-85794589D01*
X129798572Y-85794589D02*
X129870000Y-85758875D01*
X130441428Y-85758875D02*
X130941428Y-85758875D01*
X130941428Y-85758875D02*
X130620000Y-86508875D01*
X129370000Y-89079589D02*
X129370000Y-88329589D01*
X129870000Y-88329589D02*
X130012857Y-88329589D01*
X130012857Y-88329589D02*
X130084286Y-88365303D01*
X130084286Y-88365303D02*
X130155714Y-88436732D01*
X130155714Y-88436732D02*
X130191429Y-88579589D01*
X130191429Y-88579589D02*
X130191429Y-88829589D01*
X130191429Y-88829589D02*
X130155714Y-88972446D01*
X130155714Y-88972446D02*
X130084286Y-89043875D01*
X130084286Y-89043875D02*
X130012857Y-89079589D01*
X130012857Y-89079589D02*
X129870000Y-89079589D01*
X129870000Y-89079589D02*
X129798572Y-89043875D01*
X129798572Y-89043875D02*
X129727143Y-88972446D01*
X129727143Y-88972446D02*
X129691429Y-88829589D01*
X129691429Y-88829589D02*
X129691429Y-88579589D01*
X129691429Y-88579589D02*
X129727143Y-88436732D01*
X129727143Y-88436732D02*
X129798572Y-88365303D01*
X129798572Y-88365303D02*
X129870000Y-88329589D01*
X130548571Y-89079589D02*
X130691428Y-89079589D01*
X130691428Y-89079589D02*
X130762857Y-89043875D01*
X130762857Y-89043875D02*
X130798571Y-89008160D01*
X130798571Y-89008160D02*
X130870000Y-88901017D01*
X130870000Y-88901017D02*
X130905714Y-88758160D01*
X130905714Y-88758160D02*
X130905714Y-88472446D01*
X130905714Y-88472446D02*
X130870000Y-88401017D01*
X130870000Y-88401017D02*
X130834286Y-88365303D01*
X130834286Y-88365303D02*
X130762857Y-88329589D01*
X130762857Y-88329589D02*
X130620000Y-88329589D01*
X130620000Y-88329589D02*
X130548571Y-88365303D01*
X130548571Y-88365303D02*
X130512857Y-88401017D01*
X130512857Y-88401017D02*
X130477143Y-88472446D01*
X130477143Y-88472446D02*
X130477143Y-88651017D01*
X130477143Y-88651017D02*
X130512857Y-88722446D01*
X130512857Y-88722446D02*
X130548571Y-88758160D01*
X130548571Y-88758160D02*
X130620000Y-88793875D01*
X130620000Y-88793875D02*
X130762857Y-88793875D01*
X130762857Y-88793875D02*
X130834286Y-88758160D01*
X130834286Y-88758160D02*
X130870000Y-88722446D01*
X130870000Y-88722446D02*
X130905714Y-88651017D01*
X152253571Y-73028517D02*
X152182143Y-72992803D01*
X152182143Y-72992803D02*
X152075000Y-72992803D01*
X152075000Y-72992803D02*
X151967857Y-73028517D01*
X151967857Y-73028517D02*
X151896428Y-73099946D01*
X151896428Y-73099946D02*
X151860714Y-73171374D01*
X151860714Y-73171374D02*
X151825000Y-73314231D01*
X151825000Y-73314231D02*
X151825000Y-73421374D01*
X151825000Y-73421374D02*
X151860714Y-73564231D01*
X151860714Y-73564231D02*
X151896428Y-73635660D01*
X151896428Y-73635660D02*
X151967857Y-73707089D01*
X151967857Y-73707089D02*
X152075000Y-73742803D01*
X152075000Y-73742803D02*
X152146428Y-73742803D01*
X152146428Y-73742803D02*
X152253571Y-73707089D01*
X152253571Y-73707089D02*
X152289285Y-73671374D01*
X152289285Y-73671374D02*
X152289285Y-73421374D01*
X152289285Y-73421374D02*
X152146428Y-73421374D01*
X152610714Y-73742803D02*
X152610714Y-72992803D01*
X152610714Y-72992803D02*
X153039285Y-73742803D01*
X153039285Y-73742803D02*
X153039285Y-72992803D01*
X153396428Y-73742803D02*
X153396428Y-72992803D01*
X153396428Y-72992803D02*
X153574999Y-72992803D01*
X153574999Y-72992803D02*
X153682142Y-73028517D01*
X153682142Y-73028517D02*
X153753571Y-73099946D01*
X153753571Y-73099946D02*
X153789285Y-73171374D01*
X153789285Y-73171374D02*
X153824999Y-73314231D01*
X153824999Y-73314231D02*
X153824999Y-73421374D01*
X153824999Y-73421374D02*
X153789285Y-73564231D01*
X153789285Y-73564231D02*
X153753571Y-73635660D01*
X153753571Y-73635660D02*
X153682142Y-73707089D01*
X153682142Y-73707089D02*
X153574999Y-73742803D01*
X153574999Y-73742803D02*
X153396428Y-73742803D01*
X152075000Y-76313518D02*
X152075000Y-75563518D01*
X152575000Y-75563518D02*
X152717857Y-75563518D01*
X152717857Y-75563518D02*
X152789286Y-75599232D01*
X152789286Y-75599232D02*
X152860714Y-75670661D01*
X152860714Y-75670661D02*
X152896429Y-75813518D01*
X152896429Y-75813518D02*
X152896429Y-76063518D01*
X152896429Y-76063518D02*
X152860714Y-76206375D01*
X152860714Y-76206375D02*
X152789286Y-76277804D01*
X152789286Y-76277804D02*
X152717857Y-76313518D01*
X152717857Y-76313518D02*
X152575000Y-76313518D01*
X152575000Y-76313518D02*
X152503572Y-76277804D01*
X152503572Y-76277804D02*
X152432143Y-76206375D01*
X152432143Y-76206375D02*
X152396429Y-76063518D01*
X152396429Y-76063518D02*
X152396429Y-75813518D01*
X152396429Y-75813518D02*
X152432143Y-75670661D01*
X152432143Y-75670661D02*
X152503572Y-75599232D01*
X152503572Y-75599232D02*
X152575000Y-75563518D01*
X153146428Y-75563518D02*
X153610714Y-75563518D01*
X153610714Y-75563518D02*
X153360714Y-75849232D01*
X153360714Y-75849232D02*
X153467857Y-75849232D01*
X153467857Y-75849232D02*
X153539286Y-75884946D01*
X153539286Y-75884946D02*
X153575000Y-75920661D01*
X153575000Y-75920661D02*
X153610714Y-75992089D01*
X153610714Y-75992089D02*
X153610714Y-76170661D01*
X153610714Y-76170661D02*
X153575000Y-76242089D01*
X153575000Y-76242089D02*
X153539286Y-76277804D01*
X153539286Y-76277804D02*
X153467857Y-76313518D01*
X153467857Y-76313518D02*
X153253571Y-76313518D01*
X153253571Y-76313518D02*
X153182143Y-76277804D01*
X153182143Y-76277804D02*
X153146428Y-76242089D01*
X152253571Y-78169946D02*
X152182143Y-78134232D01*
X152182143Y-78134232D02*
X152075000Y-78134232D01*
X152075000Y-78134232D02*
X151967857Y-78169946D01*
X151967857Y-78169946D02*
X151896428Y-78241375D01*
X151896428Y-78241375D02*
X151860714Y-78312803D01*
X151860714Y-78312803D02*
X151825000Y-78455660D01*
X151825000Y-78455660D02*
X151825000Y-78562803D01*
X151825000Y-78562803D02*
X151860714Y-78705660D01*
X151860714Y-78705660D02*
X151896428Y-78777089D01*
X151896428Y-78777089D02*
X151967857Y-78848518D01*
X151967857Y-78848518D02*
X152075000Y-78884232D01*
X152075000Y-78884232D02*
X152146428Y-78884232D01*
X152146428Y-78884232D02*
X152253571Y-78848518D01*
X152253571Y-78848518D02*
X152289285Y-78812803D01*
X152289285Y-78812803D02*
X152289285Y-78562803D01*
X152289285Y-78562803D02*
X152146428Y-78562803D01*
X152610714Y-78884232D02*
X152610714Y-78134232D01*
X152610714Y-78134232D02*
X153039285Y-78884232D01*
X153039285Y-78884232D02*
X153039285Y-78134232D01*
X153396428Y-78884232D02*
X153396428Y-78134232D01*
X153396428Y-78134232D02*
X153574999Y-78134232D01*
X153574999Y-78134232D02*
X153682142Y-78169946D01*
X153682142Y-78169946D02*
X153753571Y-78241375D01*
X153753571Y-78241375D02*
X153789285Y-78312803D01*
X153789285Y-78312803D02*
X153824999Y-78455660D01*
X153824999Y-78455660D02*
X153824999Y-78562803D01*
X153824999Y-78562803D02*
X153789285Y-78705660D01*
X153789285Y-78705660D02*
X153753571Y-78777089D01*
X153753571Y-78777089D02*
X153682142Y-78848518D01*
X153682142Y-78848518D02*
X153574999Y-78884232D01*
X153574999Y-78884232D02*
X153396428Y-78884232D01*
X151878571Y-80704946D02*
X152307143Y-80704946D01*
X152092857Y-81454946D02*
X152092857Y-80704946D01*
X152485714Y-80704946D02*
X152985714Y-81454946D01*
X152985714Y-80704946D02*
X152485714Y-81454946D01*
X153271429Y-81454946D02*
X153271429Y-80704946D01*
X153271429Y-80704946D02*
X153450000Y-80704946D01*
X153450000Y-80704946D02*
X153557143Y-80740660D01*
X153557143Y-80740660D02*
X153628572Y-80812089D01*
X153628572Y-80812089D02*
X153664286Y-80883517D01*
X153664286Y-80883517D02*
X153700000Y-81026374D01*
X153700000Y-81026374D02*
X153700000Y-81133517D01*
X153700000Y-81133517D02*
X153664286Y-81276374D01*
X153664286Y-81276374D02*
X153628572Y-81347803D01*
X153628572Y-81347803D02*
X153557143Y-81419232D01*
X153557143Y-81419232D02*
X153450000Y-81454946D01*
X153450000Y-81454946D02*
X153271429Y-81454946D01*
X152324999Y-84025660D02*
X152074999Y-83668517D01*
X151896428Y-84025660D02*
X151896428Y-83275660D01*
X151896428Y-83275660D02*
X152182142Y-83275660D01*
X152182142Y-83275660D02*
X152253571Y-83311374D01*
X152253571Y-83311374D02*
X152289285Y-83347088D01*
X152289285Y-83347088D02*
X152324999Y-83418517D01*
X152324999Y-83418517D02*
X152324999Y-83525660D01*
X152324999Y-83525660D02*
X152289285Y-83597088D01*
X152289285Y-83597088D02*
X152253571Y-83632803D01*
X152253571Y-83632803D02*
X152182142Y-83668517D01*
X152182142Y-83668517D02*
X151896428Y-83668517D01*
X152574999Y-83275660D02*
X153074999Y-84025660D01*
X153074999Y-83275660D02*
X152574999Y-84025660D01*
X153360714Y-84025660D02*
X153360714Y-83275660D01*
X153360714Y-83275660D02*
X153539285Y-83275660D01*
X153539285Y-83275660D02*
X153646428Y-83311374D01*
X153646428Y-83311374D02*
X153717857Y-83382803D01*
X153717857Y-83382803D02*
X153753571Y-83454231D01*
X153753571Y-83454231D02*
X153789285Y-83597088D01*
X153789285Y-83597088D02*
X153789285Y-83704231D01*
X153789285Y-83704231D02*
X153753571Y-83847088D01*
X153753571Y-83847088D02*
X153717857Y-83918517D01*
X153717857Y-83918517D02*
X153646428Y-83989946D01*
X153646428Y-83989946D02*
X153539285Y-84025660D01*
X153539285Y-84025660D02*
X153360714Y-84025660D01*
X152253571Y-85882089D02*
X152182143Y-85846375D01*
X152182143Y-85846375D02*
X152075000Y-85846375D01*
X152075000Y-85846375D02*
X151967857Y-85882089D01*
X151967857Y-85882089D02*
X151896428Y-85953518D01*
X151896428Y-85953518D02*
X151860714Y-86024946D01*
X151860714Y-86024946D02*
X151825000Y-86167803D01*
X151825000Y-86167803D02*
X151825000Y-86274946D01*
X151825000Y-86274946D02*
X151860714Y-86417803D01*
X151860714Y-86417803D02*
X151896428Y-86489232D01*
X151896428Y-86489232D02*
X151967857Y-86560661D01*
X151967857Y-86560661D02*
X152075000Y-86596375D01*
X152075000Y-86596375D02*
X152146428Y-86596375D01*
X152146428Y-86596375D02*
X152253571Y-86560661D01*
X152253571Y-86560661D02*
X152289285Y-86524946D01*
X152289285Y-86524946D02*
X152289285Y-86274946D01*
X152289285Y-86274946D02*
X152146428Y-86274946D01*
X152610714Y-86596375D02*
X152610714Y-85846375D01*
X152610714Y-85846375D02*
X153039285Y-86596375D01*
X153039285Y-86596375D02*
X153039285Y-85846375D01*
X153396428Y-86596375D02*
X153396428Y-85846375D01*
X153396428Y-85846375D02*
X153574999Y-85846375D01*
X153574999Y-85846375D02*
X153682142Y-85882089D01*
X153682142Y-85882089D02*
X153753571Y-85953518D01*
X153753571Y-85953518D02*
X153789285Y-86024946D01*
X153789285Y-86024946D02*
X153824999Y-86167803D01*
X153824999Y-86167803D02*
X153824999Y-86274946D01*
X153824999Y-86274946D02*
X153789285Y-86417803D01*
X153789285Y-86417803D02*
X153753571Y-86489232D01*
X153753571Y-86489232D02*
X153682142Y-86560661D01*
X153682142Y-86560661D02*
X153574999Y-86596375D01*
X153574999Y-86596375D02*
X153396428Y-86596375D01*
X151717857Y-88992089D02*
X151717857Y-88242089D01*
X152217857Y-88242089D02*
X152360714Y-88242089D01*
X152360714Y-88242089D02*
X152432143Y-88277803D01*
X152432143Y-88277803D02*
X152503571Y-88349232D01*
X152503571Y-88349232D02*
X152539286Y-88492089D01*
X152539286Y-88492089D02*
X152539286Y-88742089D01*
X152539286Y-88742089D02*
X152503571Y-88884946D01*
X152503571Y-88884946D02*
X152432143Y-88956375D01*
X152432143Y-88956375D02*
X152360714Y-88992089D01*
X152360714Y-88992089D02*
X152217857Y-88992089D01*
X152217857Y-88992089D02*
X152146429Y-88956375D01*
X152146429Y-88956375D02*
X152075000Y-88884946D01*
X152075000Y-88884946D02*
X152039286Y-88742089D01*
X152039286Y-88742089D02*
X152039286Y-88492089D01*
X152039286Y-88492089D02*
X152075000Y-88349232D01*
X152075000Y-88349232D02*
X152146429Y-88277803D01*
X152146429Y-88277803D02*
X152217857Y-88242089D01*
X153253571Y-88992089D02*
X152825000Y-88992089D01*
X153039285Y-88992089D02*
X153039285Y-88242089D01*
X153039285Y-88242089D02*
X152967857Y-88349232D01*
X152967857Y-88349232D02*
X152896428Y-88420660D01*
X152896428Y-88420660D02*
X152825000Y-88456375D01*
X153717857Y-88242089D02*
X153789286Y-88242089D01*
X153789286Y-88242089D02*
X153860714Y-88277803D01*
X153860714Y-88277803D02*
X153896429Y-88313517D01*
X153896429Y-88313517D02*
X153932143Y-88384946D01*
X153932143Y-88384946D02*
X153967857Y-88527803D01*
X153967857Y-88527803D02*
X153967857Y-88706375D01*
X153967857Y-88706375D02*
X153932143Y-88849232D01*
X153932143Y-88849232D02*
X153896429Y-88920660D01*
X153896429Y-88920660D02*
X153860714Y-88956375D01*
X153860714Y-88956375D02*
X153789286Y-88992089D01*
X153789286Y-88992089D02*
X153717857Y-88992089D01*
X153717857Y-88992089D02*
X153646429Y-88956375D01*
X153646429Y-88956375D02*
X153610714Y-88920660D01*
X153610714Y-88920660D02*
X153575000Y-88849232D01*
X153575000Y-88849232D02*
X153539286Y-88706375D01*
X153539286Y-88706375D02*
X153539286Y-88527803D01*
X153539286Y-88527803D02*
X153575000Y-88384946D01*
X153575000Y-88384946D02*
X153610714Y-88313517D01*
X153610714Y-88313517D02*
X153646429Y-88277803D01*
X153646429Y-88277803D02*
X153717857Y-88242089D01*
X152932143Y-70422089D02*
X152575000Y-70422089D01*
X152575000Y-70422089D02*
X152539286Y-70779232D01*
X152539286Y-70779232D02*
X152575000Y-70743517D01*
X152575000Y-70743517D02*
X152646429Y-70707803D01*
X152646429Y-70707803D02*
X152825000Y-70707803D01*
X152825000Y-70707803D02*
X152896429Y-70743517D01*
X152896429Y-70743517D02*
X152932143Y-70779232D01*
X152932143Y-70779232D02*
X152967857Y-70850660D01*
X152967857Y-70850660D02*
X152967857Y-71029232D01*
X152967857Y-71029232D02*
X152932143Y-71100660D01*
X152932143Y-71100660D02*
X152896429Y-71136375D01*
X152896429Y-71136375D02*
X152825000Y-71172089D01*
X152825000Y-71172089D02*
X152646429Y-71172089D01*
X152646429Y-71172089D02*
X152575000Y-71136375D01*
X152575000Y-71136375D02*
X152539286Y-71100660D01*
X153182143Y-70422089D02*
X153432143Y-71172089D01*
X153432143Y-71172089D02*
X153682143Y-70422089D01*
D13*
X129055497Y-100987214D02*
X128805497Y-100630071D01*
X128626926Y-100987214D02*
X128626926Y-100237214D01*
X128626926Y-100237214D02*
X128912640Y-100237214D01*
X128912640Y-100237214D02*
X128984069Y-100272928D01*
X128984069Y-100272928D02*
X129019783Y-100308642D01*
X129019783Y-100308642D02*
X129055497Y-100380071D01*
X129055497Y-100380071D02*
X129055497Y-100487214D01*
X129055497Y-100487214D02*
X129019783Y-100558642D01*
X129019783Y-100558642D02*
X128984069Y-100594357D01*
X128984069Y-100594357D02*
X128912640Y-100630071D01*
X128912640Y-100630071D02*
X128626926Y-100630071D01*
X129376926Y-100594357D02*
X129626926Y-100594357D01*
X129734069Y-100987214D02*
X129376926Y-100987214D01*
X129376926Y-100987214D02*
X129376926Y-100237214D01*
X129376926Y-100237214D02*
X129734069Y-100237214D01*
X130019783Y-100951500D02*
X130126926Y-100987214D01*
X130126926Y-100987214D02*
X130305497Y-100987214D01*
X130305497Y-100987214D02*
X130376926Y-100951500D01*
X130376926Y-100951500D02*
X130412640Y-100915785D01*
X130412640Y-100915785D02*
X130448354Y-100844357D01*
X130448354Y-100844357D02*
X130448354Y-100772928D01*
X130448354Y-100772928D02*
X130412640Y-100701500D01*
X130412640Y-100701500D02*
X130376926Y-100665785D01*
X130376926Y-100665785D02*
X130305497Y-100630071D01*
X130305497Y-100630071D02*
X130162640Y-100594357D01*
X130162640Y-100594357D02*
X130091211Y-100558642D01*
X130091211Y-100558642D02*
X130055497Y-100522928D01*
X130055497Y-100522928D02*
X130019783Y-100451500D01*
X130019783Y-100451500D02*
X130019783Y-100380071D01*
X130019783Y-100380071D02*
X130055497Y-100308642D01*
X130055497Y-100308642D02*
X130091211Y-100272928D01*
X130091211Y-100272928D02*
X130162640Y-100237214D01*
X130162640Y-100237214D02*
X130341211Y-100237214D01*
X130341211Y-100237214D02*
X130448354Y-100272928D01*
X130769783Y-100594357D02*
X131019783Y-100594357D01*
X131126926Y-100987214D02*
X130769783Y-100987214D01*
X130769783Y-100987214D02*
X130769783Y-100237214D01*
X130769783Y-100237214D02*
X131126926Y-100237214D01*
X131341211Y-100237214D02*
X131769783Y-100237214D01*
X131555497Y-100987214D02*
X131555497Y-100237214D01*
X151904426Y-100706857D02*
X152011569Y-100742571D01*
X152011569Y-100742571D02*
X152047283Y-100778285D01*
X152047283Y-100778285D02*
X152082997Y-100849714D01*
X152082997Y-100849714D02*
X152082997Y-100956857D01*
X152082997Y-100956857D02*
X152047283Y-101028285D01*
X152047283Y-101028285D02*
X152011569Y-101064000D01*
X152011569Y-101064000D02*
X151940140Y-101099714D01*
X151940140Y-101099714D02*
X151654426Y-101099714D01*
X151654426Y-101099714D02*
X151654426Y-100349714D01*
X151654426Y-100349714D02*
X151904426Y-100349714D01*
X151904426Y-100349714D02*
X151975855Y-100385428D01*
X151975855Y-100385428D02*
X152011569Y-100421142D01*
X152011569Y-100421142D02*
X152047283Y-100492571D01*
X152047283Y-100492571D02*
X152047283Y-100564000D01*
X152047283Y-100564000D02*
X152011569Y-100635428D01*
X152011569Y-100635428D02*
X151975855Y-100671142D01*
X151975855Y-100671142D02*
X151904426Y-100706857D01*
X151904426Y-100706857D02*
X151654426Y-100706857D01*
X152547283Y-100349714D02*
X152690140Y-100349714D01*
X152690140Y-100349714D02*
X152761569Y-100385428D01*
X152761569Y-100385428D02*
X152832997Y-100456857D01*
X152832997Y-100456857D02*
X152868712Y-100599714D01*
X152868712Y-100599714D02*
X152868712Y-100849714D01*
X152868712Y-100849714D02*
X152832997Y-100992571D01*
X152832997Y-100992571D02*
X152761569Y-101064000D01*
X152761569Y-101064000D02*
X152690140Y-101099714D01*
X152690140Y-101099714D02*
X152547283Y-101099714D01*
X152547283Y-101099714D02*
X152475855Y-101064000D01*
X152475855Y-101064000D02*
X152404426Y-100992571D01*
X152404426Y-100992571D02*
X152368712Y-100849714D01*
X152368712Y-100849714D02*
X152368712Y-100599714D01*
X152368712Y-100599714D02*
X152404426Y-100456857D01*
X152404426Y-100456857D02*
X152475855Y-100385428D01*
X152475855Y-100385428D02*
X152547283Y-100349714D01*
X153332997Y-100349714D02*
X153475854Y-100349714D01*
X153475854Y-100349714D02*
X153547283Y-100385428D01*
X153547283Y-100385428D02*
X153618711Y-100456857D01*
X153618711Y-100456857D02*
X153654426Y-100599714D01*
X153654426Y-100599714D02*
X153654426Y-100849714D01*
X153654426Y-100849714D02*
X153618711Y-100992571D01*
X153618711Y-100992571D02*
X153547283Y-101064000D01*
X153547283Y-101064000D02*
X153475854Y-101099714D01*
X153475854Y-101099714D02*
X153332997Y-101099714D01*
X153332997Y-101099714D02*
X153261569Y-101064000D01*
X153261569Y-101064000D02*
X153190140Y-100992571D01*
X153190140Y-100992571D02*
X153154426Y-100849714D01*
X153154426Y-100849714D02*
X153154426Y-100599714D01*
X153154426Y-100599714D02*
X153190140Y-100456857D01*
X153190140Y-100456857D02*
X153261569Y-100385428D01*
X153261569Y-100385428D02*
X153332997Y-100349714D01*
X153868711Y-100349714D02*
X154297283Y-100349714D01*
X154082997Y-101099714D02*
X154082997Y-100349714D01*
%TO.C,R10*%
D14*
X144976359Y-86490000D02*
X145283641Y-86490000D01*
X144976359Y-87250000D02*
X145283641Y-87250000D01*
%TO.C,D2*%
X146310000Y-89770000D02*
X148230000Y-89770000D01*
X148230000Y-89770000D02*
X148230000Y-86910000D01*
X146310000Y-86910000D02*
X146310000Y-89770000D01*
%TO.C,C3*%
X142808748Y-93185000D02*
X143331252Y-93185000D01*
X142808748Y-94655000D02*
X143331252Y-94655000D01*
%TO.C,U1*%
X147780000Y-95200000D02*
X146730000Y-95200000D01*
X147780000Y-97180000D02*
X146480000Y-97180000D01*
X146360000Y-95200000D02*
X146080000Y-95200000D01*
X146360000Y-94920000D01*
X146360000Y-95200000D01*
G36*
X146360000Y-95200000D02*
G01*
X146080000Y-95200000D01*
X146360000Y-94920000D01*
X146360000Y-95200000D01*
G37*
%TO.C,R5*%
X129673641Y-102160000D02*
X129366359Y-102160000D01*
X129673641Y-102920000D02*
X129366359Y-102920000D01*
%TO.C,C9*%
X132620000Y-104042164D02*
X132620000Y-104257836D01*
X133340000Y-104042164D02*
X133340000Y-104257836D01*
%TO.C,R6*%
X131906359Y-102150000D02*
X132213641Y-102150000D01*
X131906359Y-102910000D02*
X132213641Y-102910000D01*
%TO.C,R1*%
X140290000Y-98273641D02*
X140290000Y-97966359D01*
X141050000Y-98273641D02*
X141050000Y-97966359D01*
%TO.C,R8*%
X134270000Y-87786359D02*
X134270000Y-88093641D01*
X135030000Y-87786359D02*
X135030000Y-88093641D01*
%TO.C,C1*%
X137081252Y-95105000D02*
X136558748Y-95105000D01*
X137081252Y-96575000D02*
X136558748Y-96575000D01*
%TO.C,J1*%
X137370000Y-102335000D02*
X137370000Y-104255000D01*
X137370000Y-107970000D02*
X137370000Y-106265000D01*
X146530000Y-104255000D02*
X146530000Y-102335000D01*
X146530000Y-106265000D02*
X146530000Y-107970000D01*
X146530000Y-107970000D02*
X137370000Y-107970000D01*
%TO.C,C2*%
X137073752Y-92885000D02*
X136551248Y-92885000D01*
X137073752Y-94355000D02*
X136551248Y-94355000D01*
%TO.C,R3*%
X139185000Y-95077064D02*
X139185000Y-94622936D01*
X140655000Y-95077064D02*
X140655000Y-94622936D01*
%TO.C,U2*%
X141530000Y-90010000D02*
X141530000Y-89210000D01*
X141530000Y-90010000D02*
X141530000Y-90810000D01*
X144750000Y-91010000D02*
X144750000Y-89210000D01*
X141580000Y-91310000D02*
X141250000Y-91550000D01*
X141250000Y-91070000D01*
X141580000Y-91310000D01*
G36*
X141580000Y-91310000D02*
G01*
X141250000Y-91550000D01*
X141250000Y-91070000D01*
X141580000Y-91310000D01*
G37*
%TO.C,R7*%
X154443641Y-102339125D02*
X154136359Y-102339125D01*
X154443641Y-103099125D02*
X154136359Y-103099125D01*
%TO.C,R9*%
X132870000Y-87786359D02*
X132870000Y-88093641D01*
X133630000Y-87786359D02*
X133630000Y-88093641D01*
%TO.C,C4*%
X139105000Y-89348748D02*
X139105000Y-89871252D01*
X140575000Y-89348748D02*
X140575000Y-89871252D01*
%TO.C,R2*%
X143330000Y-98283641D02*
X143330000Y-97976359D01*
X144090000Y-98283641D02*
X144090000Y-97976359D01*
%TO.C,D1*%
X138260000Y-97800000D02*
X136950000Y-97800000D01*
X138260000Y-99020000D02*
X136950000Y-99020000D01*
X138260000Y-99020000D02*
X138260000Y-97800000D01*
%TO.C,U3*%
X132290000Y-82110000D02*
X132290000Y-82410000D01*
X132290000Y-82410000D02*
X150510000Y-82410000D01*
X150510000Y-82110000D02*
X150510000Y-82410000D01*
%TO.C,SW2*%
X150650000Y-103834125D02*
X153950000Y-103834125D01*
X150650000Y-104134125D02*
X150650000Y-103834125D01*
X150650000Y-106334125D02*
X150650000Y-106634125D01*
X150650000Y-106634125D02*
X153950000Y-106634125D01*
X153950000Y-103834125D02*
X153950000Y-104134125D01*
X153950000Y-106634125D02*
X153950000Y-106334125D01*
%TO.C,C10*%
X155300000Y-104371289D02*
X155300000Y-104586961D01*
X156020000Y-104371289D02*
X156020000Y-104586961D01*
%TO.C,SW1*%
X128140000Y-103500000D02*
X131440000Y-103500000D01*
X128140000Y-103800000D02*
X128140000Y-103500000D01*
X128140000Y-106000000D02*
X128140000Y-106300000D01*
X128140000Y-106300000D02*
X131440000Y-106300000D01*
X131440000Y-103500000D02*
X131440000Y-103800000D01*
X131440000Y-106300000D02*
X131440000Y-106000000D01*
%TD*%
M02*
