%TF.GenerationSoftware,KiCad,Pcbnew,10.0.2*%
%TF.CreationDate,2026-06-30T00:31:04+02:00*%
%TF.ProjectId,ESP32_C3_Mini,45535033-325f-4433-935f-4d696e692e6b,rev?*%
%TF.SameCoordinates,Original*%
%TF.FileFunction,Legend,Bot*%
%TF.FilePolarity,Positive*%
%FSLAX46Y46*%
G04 Gerber Fmt 4.6, Leading zero omitted, Abs format (unit mm)*
G04 Created by KiCad (PCBNEW 10.0.2) date 2026-06-30 00:31:04*
%MOMM*%
%LPD*%
G01*
G04 APERTURE LIST*
%ADD10C,0.200000*%
%ADD11C,0.120000*%
G04 APERTURE END LIST*
D10*
X133277275Y-77219673D02*
X132277275Y-77219673D01*
X132277275Y-77219673D02*
X132277275Y-77457768D01*
X132277275Y-77457768D02*
X132324894Y-77600625D01*
X132324894Y-77600625D02*
X132420132Y-77695863D01*
X132420132Y-77695863D02*
X132515370Y-77743482D01*
X132515370Y-77743482D02*
X132705846Y-77791101D01*
X132705846Y-77791101D02*
X132848703Y-77791101D01*
X132848703Y-77791101D02*
X133039179Y-77743482D01*
X133039179Y-77743482D02*
X133134417Y-77695863D01*
X133134417Y-77695863D02*
X133229656Y-77600625D01*
X133229656Y-77600625D02*
X133277275Y-77457768D01*
X133277275Y-77457768D02*
X133277275Y-77219673D01*
X133229656Y-78600625D02*
X133277275Y-78505387D01*
X133277275Y-78505387D02*
X133277275Y-78314911D01*
X133277275Y-78314911D02*
X133229656Y-78219673D01*
X133229656Y-78219673D02*
X133134417Y-78172054D01*
X133134417Y-78172054D02*
X132753465Y-78172054D01*
X132753465Y-78172054D02*
X132658227Y-78219673D01*
X132658227Y-78219673D02*
X132610608Y-78314911D01*
X132610608Y-78314911D02*
X132610608Y-78505387D01*
X132610608Y-78505387D02*
X132658227Y-78600625D01*
X132658227Y-78600625D02*
X132753465Y-78648244D01*
X132753465Y-78648244D02*
X132848703Y-78648244D01*
X132848703Y-78648244D02*
X132943941Y-78172054D01*
X133229656Y-79029197D02*
X133277275Y-79124435D01*
X133277275Y-79124435D02*
X133277275Y-79314911D01*
X133277275Y-79314911D02*
X133229656Y-79410149D01*
X133229656Y-79410149D02*
X133134417Y-79457768D01*
X133134417Y-79457768D02*
X133086798Y-79457768D01*
X133086798Y-79457768D02*
X132991560Y-79410149D01*
X132991560Y-79410149D02*
X132943941Y-79314911D01*
X132943941Y-79314911D02*
X132943941Y-79172054D01*
X132943941Y-79172054D02*
X132896322Y-79076816D01*
X132896322Y-79076816D02*
X132801084Y-79029197D01*
X132801084Y-79029197D02*
X132753465Y-79029197D01*
X132753465Y-79029197D02*
X132658227Y-79076816D01*
X132658227Y-79076816D02*
X132610608Y-79172054D01*
X132610608Y-79172054D02*
X132610608Y-79314911D01*
X132610608Y-79314911D02*
X132658227Y-79410149D01*
X133277275Y-79886340D02*
X132610608Y-79886340D01*
X132277275Y-79886340D02*
X132324894Y-79838721D01*
X132324894Y-79838721D02*
X132372513Y-79886340D01*
X132372513Y-79886340D02*
X132324894Y-79933959D01*
X132324894Y-79933959D02*
X132277275Y-79886340D01*
X132277275Y-79886340D02*
X132372513Y-79886340D01*
X132610608Y-80791101D02*
X133420132Y-80791101D01*
X133420132Y-80791101D02*
X133515370Y-80743482D01*
X133515370Y-80743482D02*
X133562989Y-80695863D01*
X133562989Y-80695863D02*
X133610608Y-80600625D01*
X133610608Y-80600625D02*
X133610608Y-80457768D01*
X133610608Y-80457768D02*
X133562989Y-80362530D01*
X133229656Y-80791101D02*
X133277275Y-80695863D01*
X133277275Y-80695863D02*
X133277275Y-80505387D01*
X133277275Y-80505387D02*
X133229656Y-80410149D01*
X133229656Y-80410149D02*
X133182036Y-80362530D01*
X133182036Y-80362530D02*
X133086798Y-80314911D01*
X133086798Y-80314911D02*
X132801084Y-80314911D01*
X132801084Y-80314911D02*
X132705846Y-80362530D01*
X132705846Y-80362530D02*
X132658227Y-80410149D01*
X132658227Y-80410149D02*
X132610608Y-80505387D01*
X132610608Y-80505387D02*
X132610608Y-80695863D01*
X132610608Y-80695863D02*
X132658227Y-80791101D01*
X132610608Y-81267292D02*
X133277275Y-81267292D01*
X132705846Y-81267292D02*
X132658227Y-81314911D01*
X132658227Y-81314911D02*
X132610608Y-81410149D01*
X132610608Y-81410149D02*
X132610608Y-81553006D01*
X132610608Y-81553006D02*
X132658227Y-81648244D01*
X132658227Y-81648244D02*
X132753465Y-81695863D01*
X132753465Y-81695863D02*
X133277275Y-81695863D01*
X133229656Y-82553006D02*
X133277275Y-82457768D01*
X133277275Y-82457768D02*
X133277275Y-82267292D01*
X133277275Y-82267292D02*
X133229656Y-82172054D01*
X133229656Y-82172054D02*
X133134417Y-82124435D01*
X133134417Y-82124435D02*
X132753465Y-82124435D01*
X132753465Y-82124435D02*
X132658227Y-82172054D01*
X132658227Y-82172054D02*
X132610608Y-82267292D01*
X132610608Y-82267292D02*
X132610608Y-82457768D01*
X132610608Y-82457768D02*
X132658227Y-82553006D01*
X132658227Y-82553006D02*
X132753465Y-82600625D01*
X132753465Y-82600625D02*
X132848703Y-82600625D01*
X132848703Y-82600625D02*
X132943941Y-82124435D01*
X133277275Y-83457768D02*
X132277275Y-83457768D01*
X133229656Y-83457768D02*
X133277275Y-83362530D01*
X133277275Y-83362530D02*
X133277275Y-83172054D01*
X133277275Y-83172054D02*
X133229656Y-83076816D01*
X133229656Y-83076816D02*
X133182036Y-83029197D01*
X133182036Y-83029197D02*
X133086798Y-82981578D01*
X133086798Y-82981578D02*
X132801084Y-82981578D01*
X132801084Y-82981578D02*
X132705846Y-83029197D01*
X132705846Y-83029197D02*
X132658227Y-83076816D01*
X132658227Y-83076816D02*
X132610608Y-83172054D01*
X132610608Y-83172054D02*
X132610608Y-83362530D01*
X132610608Y-83362530D02*
X132658227Y-83457768D01*
X133277275Y-84695864D02*
X132277275Y-84695864D01*
X132658227Y-84695864D02*
X132610608Y-84791102D01*
X132610608Y-84791102D02*
X132610608Y-84981578D01*
X132610608Y-84981578D02*
X132658227Y-85076816D01*
X132658227Y-85076816D02*
X132705846Y-85124435D01*
X132705846Y-85124435D02*
X132801084Y-85172054D01*
X132801084Y-85172054D02*
X133086798Y-85172054D01*
X133086798Y-85172054D02*
X133182036Y-85124435D01*
X133182036Y-85124435D02*
X133229656Y-85076816D01*
X133229656Y-85076816D02*
X133277275Y-84981578D01*
X133277275Y-84981578D02*
X133277275Y-84791102D01*
X133277275Y-84791102D02*
X133229656Y-84695864D01*
X132610608Y-85505388D02*
X133277275Y-85743483D01*
X132610608Y-85981578D02*
X133277275Y-85743483D01*
X133277275Y-85743483D02*
X133515370Y-85648245D01*
X133515370Y-85648245D02*
X133562989Y-85600626D01*
X133562989Y-85600626D02*
X133610608Y-85505388D01*
X133277275Y-87124436D02*
X132277275Y-87124436D01*
X132277275Y-87124436D02*
X132991560Y-87457769D01*
X132991560Y-87457769D02*
X132277275Y-87791102D01*
X132277275Y-87791102D02*
X133277275Y-87791102D01*
X133277275Y-88695864D02*
X132753465Y-88695864D01*
X132753465Y-88695864D02*
X132658227Y-88648245D01*
X132658227Y-88648245D02*
X132610608Y-88553007D01*
X132610608Y-88553007D02*
X132610608Y-88362531D01*
X132610608Y-88362531D02*
X132658227Y-88267293D01*
X133229656Y-88695864D02*
X133277275Y-88600626D01*
X133277275Y-88600626D02*
X133277275Y-88362531D01*
X133277275Y-88362531D02*
X133229656Y-88267293D01*
X133229656Y-88267293D02*
X133134417Y-88219674D01*
X133134417Y-88219674D02*
X133039179Y-88219674D01*
X133039179Y-88219674D02*
X132943941Y-88267293D01*
X132943941Y-88267293D02*
X132896322Y-88362531D01*
X132896322Y-88362531D02*
X132896322Y-88600626D01*
X132896322Y-88600626D02*
X132848703Y-88695864D01*
X133277275Y-89172055D02*
X132610608Y-89172055D01*
X132801084Y-89172055D02*
X132705846Y-89219674D01*
X132705846Y-89219674D02*
X132658227Y-89267293D01*
X132658227Y-89267293D02*
X132610608Y-89362531D01*
X132610608Y-89362531D02*
X132610608Y-89457769D01*
X133277275Y-89933960D02*
X133229656Y-89838722D01*
X133229656Y-89838722D02*
X133182036Y-89791103D01*
X133182036Y-89791103D02*
X133086798Y-89743484D01*
X133086798Y-89743484D02*
X132801084Y-89743484D01*
X132801084Y-89743484D02*
X132705846Y-89791103D01*
X132705846Y-89791103D02*
X132658227Y-89838722D01*
X132658227Y-89838722D02*
X132610608Y-89933960D01*
X132610608Y-89933960D02*
X132610608Y-90076817D01*
X132610608Y-90076817D02*
X132658227Y-90172055D01*
X132658227Y-90172055D02*
X132705846Y-90219674D01*
X132705846Y-90219674D02*
X132801084Y-90267293D01*
X132801084Y-90267293D02*
X133086798Y-90267293D01*
X133086798Y-90267293D02*
X133182036Y-90219674D01*
X133182036Y-90219674D02*
X133229656Y-90172055D01*
X133229656Y-90172055D02*
X133277275Y-90076817D01*
X133277275Y-90076817D02*
X133277275Y-89933960D01*
X132610608Y-91124436D02*
X133277275Y-91124436D01*
X132610608Y-90695865D02*
X133134417Y-90695865D01*
X133134417Y-90695865D02*
X133229656Y-90743484D01*
X133229656Y-90743484D02*
X133277275Y-90838722D01*
X133277275Y-90838722D02*
X133277275Y-90981579D01*
X133277275Y-90981579D02*
X133229656Y-91076817D01*
X133229656Y-91076817D02*
X133182036Y-91124436D01*
X133277275Y-92029198D02*
X132753465Y-92029198D01*
X132753465Y-92029198D02*
X132658227Y-91981579D01*
X132658227Y-91981579D02*
X132610608Y-91886341D01*
X132610608Y-91886341D02*
X132610608Y-91695865D01*
X132610608Y-91695865D02*
X132658227Y-91600627D01*
X133229656Y-92029198D02*
X133277275Y-91933960D01*
X133277275Y-91933960D02*
X133277275Y-91695865D01*
X133277275Y-91695865D02*
X133229656Y-91600627D01*
X133229656Y-91600627D02*
X133134417Y-91553008D01*
X133134417Y-91553008D02*
X133039179Y-91553008D01*
X133039179Y-91553008D02*
X132943941Y-91600627D01*
X132943941Y-91600627D02*
X132896322Y-91695865D01*
X132896322Y-91695865D02*
X132896322Y-91933960D01*
X132896322Y-91933960D02*
X132848703Y-92029198D01*
X132610608Y-92505389D02*
X133277275Y-92505389D01*
X132705846Y-92505389D02*
X132658227Y-92553008D01*
X132658227Y-92553008D02*
X132610608Y-92648246D01*
X132610608Y-92648246D02*
X132610608Y-92791103D01*
X132610608Y-92791103D02*
X132658227Y-92886341D01*
X132658227Y-92886341D02*
X132753465Y-92933960D01*
X132753465Y-92933960D02*
X133277275Y-92933960D01*
X133229656Y-93791103D02*
X133277275Y-93695865D01*
X133277275Y-93695865D02*
X133277275Y-93505389D01*
X133277275Y-93505389D02*
X133229656Y-93410151D01*
X133229656Y-93410151D02*
X133134417Y-93362532D01*
X133134417Y-93362532D02*
X132753465Y-93362532D01*
X132753465Y-93362532D02*
X132658227Y-93410151D01*
X132658227Y-93410151D02*
X132610608Y-93505389D01*
X132610608Y-93505389D02*
X132610608Y-93695865D01*
X132610608Y-93695865D02*
X132658227Y-93791103D01*
X132658227Y-93791103D02*
X132753465Y-93838722D01*
X132753465Y-93838722D02*
X132848703Y-93838722D01*
X132848703Y-93838722D02*
X132943941Y-93362532D01*
X133277275Y-95029199D02*
X132277275Y-95029199D01*
X132277275Y-95029199D02*
X132277275Y-95267294D01*
X132277275Y-95267294D02*
X132324894Y-95410151D01*
X132324894Y-95410151D02*
X132420132Y-95505389D01*
X132420132Y-95505389D02*
X132515370Y-95553008D01*
X132515370Y-95553008D02*
X132705846Y-95600627D01*
X132705846Y-95600627D02*
X132848703Y-95600627D01*
X132848703Y-95600627D02*
X133039179Y-95553008D01*
X133039179Y-95553008D02*
X133134417Y-95505389D01*
X133134417Y-95505389D02*
X133229656Y-95410151D01*
X133229656Y-95410151D02*
X133277275Y-95267294D01*
X133277275Y-95267294D02*
X133277275Y-95029199D01*
X133277275Y-96457770D02*
X132753465Y-96457770D01*
X132753465Y-96457770D02*
X132658227Y-96410151D01*
X132658227Y-96410151D02*
X132610608Y-96314913D01*
X132610608Y-96314913D02*
X132610608Y-96124437D01*
X132610608Y-96124437D02*
X132658227Y-96029199D01*
X133229656Y-96457770D02*
X133277275Y-96362532D01*
X133277275Y-96362532D02*
X133277275Y-96124437D01*
X133277275Y-96124437D02*
X133229656Y-96029199D01*
X133229656Y-96029199D02*
X133134417Y-95981580D01*
X133134417Y-95981580D02*
X133039179Y-95981580D01*
X133039179Y-95981580D02*
X132943941Y-96029199D01*
X132943941Y-96029199D02*
X132896322Y-96124437D01*
X132896322Y-96124437D02*
X132896322Y-96362532D01*
X132896322Y-96362532D02*
X132848703Y-96457770D01*
X133277275Y-97076818D02*
X133229656Y-96981580D01*
X133229656Y-96981580D02*
X133182036Y-96933961D01*
X133182036Y-96933961D02*
X133086798Y-96886342D01*
X133086798Y-96886342D02*
X132801084Y-96886342D01*
X132801084Y-96886342D02*
X132705846Y-96933961D01*
X132705846Y-96933961D02*
X132658227Y-96981580D01*
X132658227Y-96981580D02*
X132610608Y-97076818D01*
X132610608Y-97076818D02*
X132610608Y-97219675D01*
X132610608Y-97219675D02*
X132658227Y-97314913D01*
X132658227Y-97314913D02*
X132705846Y-97362532D01*
X132705846Y-97362532D02*
X132801084Y-97410151D01*
X132801084Y-97410151D02*
X133086798Y-97410151D01*
X133086798Y-97410151D02*
X133182036Y-97362532D01*
X133182036Y-97362532D02*
X133229656Y-97314913D01*
X133229656Y-97314913D02*
X133277275Y-97219675D01*
X133277275Y-97219675D02*
X133277275Y-97076818D01*
X132610608Y-98267294D02*
X133277275Y-98267294D01*
X132610608Y-97838723D02*
X133134417Y-97838723D01*
X133134417Y-97838723D02*
X133229656Y-97886342D01*
X133229656Y-97886342D02*
X133277275Y-97981580D01*
X133277275Y-97981580D02*
X133277275Y-98124437D01*
X133277275Y-98124437D02*
X133229656Y-98219675D01*
X133229656Y-98219675D02*
X133182036Y-98267294D01*
X133277275Y-99172056D02*
X132277275Y-99172056D01*
X133229656Y-99172056D02*
X133277275Y-99076818D01*
X133277275Y-99076818D02*
X133277275Y-98886342D01*
X133277275Y-98886342D02*
X133229656Y-98791104D01*
X133229656Y-98791104D02*
X133182036Y-98743485D01*
X133182036Y-98743485D02*
X133086798Y-98695866D01*
X133086798Y-98695866D02*
X132801084Y-98695866D01*
X132801084Y-98695866D02*
X132705846Y-98743485D01*
X132705846Y-98743485D02*
X132658227Y-98791104D01*
X132658227Y-98791104D02*
X132610608Y-98886342D01*
X132610608Y-98886342D02*
X132610608Y-99076818D01*
X132610608Y-99076818D02*
X132658227Y-99172056D01*
X133277275Y-99648247D02*
X132610608Y-99648247D01*
X132277275Y-99648247D02*
X132324894Y-99600628D01*
X132324894Y-99600628D02*
X132372513Y-99648247D01*
X132372513Y-99648247D02*
X132324894Y-99695866D01*
X132324894Y-99695866D02*
X132277275Y-99648247D01*
X132277275Y-99648247D02*
X132372513Y-99648247D01*
X134220552Y-77648244D02*
X135030076Y-77648244D01*
X135030076Y-77648244D02*
X135125314Y-77600625D01*
X135125314Y-77600625D02*
X135172933Y-77553006D01*
X135172933Y-77553006D02*
X135220552Y-77457768D01*
X135220552Y-77457768D02*
X135220552Y-77314911D01*
X135220552Y-77314911D02*
X135172933Y-77219673D01*
X134839600Y-77648244D02*
X134887219Y-77553006D01*
X134887219Y-77553006D02*
X134887219Y-77362530D01*
X134887219Y-77362530D02*
X134839600Y-77267292D01*
X134839600Y-77267292D02*
X134791980Y-77219673D01*
X134791980Y-77219673D02*
X134696742Y-77172054D01*
X134696742Y-77172054D02*
X134411028Y-77172054D01*
X134411028Y-77172054D02*
X134315790Y-77219673D01*
X134315790Y-77219673D02*
X134268171Y-77267292D01*
X134268171Y-77267292D02*
X134220552Y-77362530D01*
X134220552Y-77362530D02*
X134220552Y-77553006D01*
X134220552Y-77553006D02*
X134268171Y-77648244D01*
X134887219Y-78124435D02*
X134220552Y-78124435D01*
X133887219Y-78124435D02*
X133934838Y-78076816D01*
X133934838Y-78076816D02*
X133982457Y-78124435D01*
X133982457Y-78124435D02*
X133934838Y-78172054D01*
X133934838Y-78172054D02*
X133887219Y-78124435D01*
X133887219Y-78124435D02*
X133982457Y-78124435D01*
X134220552Y-78457768D02*
X134220552Y-78838720D01*
X133887219Y-78600625D02*
X134744361Y-78600625D01*
X134744361Y-78600625D02*
X134839600Y-78648244D01*
X134839600Y-78648244D02*
X134887219Y-78743482D01*
X134887219Y-78743482D02*
X134887219Y-78838720D01*
X134887219Y-79172054D02*
X133887219Y-79172054D01*
X134887219Y-79600625D02*
X134363409Y-79600625D01*
X134363409Y-79600625D02*
X134268171Y-79553006D01*
X134268171Y-79553006D02*
X134220552Y-79457768D01*
X134220552Y-79457768D02*
X134220552Y-79314911D01*
X134220552Y-79314911D02*
X134268171Y-79219673D01*
X134268171Y-79219673D02*
X134315790Y-79172054D01*
X134220552Y-80505387D02*
X134887219Y-80505387D01*
X134220552Y-80076816D02*
X134744361Y-80076816D01*
X134744361Y-80076816D02*
X134839600Y-80124435D01*
X134839600Y-80124435D02*
X134887219Y-80219673D01*
X134887219Y-80219673D02*
X134887219Y-80362530D01*
X134887219Y-80362530D02*
X134839600Y-80457768D01*
X134839600Y-80457768D02*
X134791980Y-80505387D01*
X134887219Y-80981578D02*
X133887219Y-80981578D01*
X134268171Y-80981578D02*
X134220552Y-81076816D01*
X134220552Y-81076816D02*
X134220552Y-81267292D01*
X134220552Y-81267292D02*
X134268171Y-81362530D01*
X134268171Y-81362530D02*
X134315790Y-81410149D01*
X134315790Y-81410149D02*
X134411028Y-81457768D01*
X134411028Y-81457768D02*
X134696742Y-81457768D01*
X134696742Y-81457768D02*
X134791980Y-81410149D01*
X134791980Y-81410149D02*
X134839600Y-81362530D01*
X134839600Y-81362530D02*
X134887219Y-81267292D01*
X134887219Y-81267292D02*
X134887219Y-81076816D01*
X134887219Y-81076816D02*
X134839600Y-80981578D01*
X134791980Y-81886340D02*
X134839600Y-81933959D01*
X134839600Y-81933959D02*
X134887219Y-81886340D01*
X134887219Y-81886340D02*
X134839600Y-81838721D01*
X134839600Y-81838721D02*
X134791980Y-81886340D01*
X134791980Y-81886340D02*
X134887219Y-81886340D01*
X134839600Y-82791101D02*
X134887219Y-82695863D01*
X134887219Y-82695863D02*
X134887219Y-82505387D01*
X134887219Y-82505387D02*
X134839600Y-82410149D01*
X134839600Y-82410149D02*
X134791980Y-82362530D01*
X134791980Y-82362530D02*
X134696742Y-82314911D01*
X134696742Y-82314911D02*
X134411028Y-82314911D01*
X134411028Y-82314911D02*
X134315790Y-82362530D01*
X134315790Y-82362530D02*
X134268171Y-82410149D01*
X134268171Y-82410149D02*
X134220552Y-82505387D01*
X134220552Y-82505387D02*
X134220552Y-82695863D01*
X134220552Y-82695863D02*
X134268171Y-82791101D01*
X134887219Y-83362530D02*
X134839600Y-83267292D01*
X134839600Y-83267292D02*
X134791980Y-83219673D01*
X134791980Y-83219673D02*
X134696742Y-83172054D01*
X134696742Y-83172054D02*
X134411028Y-83172054D01*
X134411028Y-83172054D02*
X134315790Y-83219673D01*
X134315790Y-83219673D02*
X134268171Y-83267292D01*
X134268171Y-83267292D02*
X134220552Y-83362530D01*
X134220552Y-83362530D02*
X134220552Y-83505387D01*
X134220552Y-83505387D02*
X134268171Y-83600625D01*
X134268171Y-83600625D02*
X134315790Y-83648244D01*
X134315790Y-83648244D02*
X134411028Y-83695863D01*
X134411028Y-83695863D02*
X134696742Y-83695863D01*
X134696742Y-83695863D02*
X134791980Y-83648244D01*
X134791980Y-83648244D02*
X134839600Y-83600625D01*
X134839600Y-83600625D02*
X134887219Y-83505387D01*
X134887219Y-83505387D02*
X134887219Y-83362530D01*
X134887219Y-84124435D02*
X134220552Y-84124435D01*
X134315790Y-84124435D02*
X134268171Y-84172054D01*
X134268171Y-84172054D02*
X134220552Y-84267292D01*
X134220552Y-84267292D02*
X134220552Y-84410149D01*
X134220552Y-84410149D02*
X134268171Y-84505387D01*
X134268171Y-84505387D02*
X134363409Y-84553006D01*
X134363409Y-84553006D02*
X134887219Y-84553006D01*
X134363409Y-84553006D02*
X134268171Y-84600625D01*
X134268171Y-84600625D02*
X134220552Y-84695863D01*
X134220552Y-84695863D02*
X134220552Y-84838720D01*
X134220552Y-84838720D02*
X134268171Y-84933959D01*
X134268171Y-84933959D02*
X134363409Y-84981578D01*
X134363409Y-84981578D02*
X134887219Y-84981578D01*
X133839600Y-86172053D02*
X135125314Y-85314911D01*
X134887219Y-86505387D02*
X134220552Y-86505387D01*
X134315790Y-86505387D02*
X134268171Y-86553006D01*
X134268171Y-86553006D02*
X134220552Y-86648244D01*
X134220552Y-86648244D02*
X134220552Y-86791101D01*
X134220552Y-86791101D02*
X134268171Y-86886339D01*
X134268171Y-86886339D02*
X134363409Y-86933958D01*
X134363409Y-86933958D02*
X134887219Y-86933958D01*
X134363409Y-86933958D02*
X134268171Y-86981577D01*
X134268171Y-86981577D02*
X134220552Y-87076815D01*
X134220552Y-87076815D02*
X134220552Y-87219672D01*
X134220552Y-87219672D02*
X134268171Y-87314911D01*
X134268171Y-87314911D02*
X134363409Y-87362530D01*
X134363409Y-87362530D02*
X134887219Y-87362530D01*
X134887219Y-88267291D02*
X134363409Y-88267291D01*
X134363409Y-88267291D02*
X134268171Y-88219672D01*
X134268171Y-88219672D02*
X134220552Y-88124434D01*
X134220552Y-88124434D02*
X134220552Y-87933958D01*
X134220552Y-87933958D02*
X134268171Y-87838720D01*
X134839600Y-88267291D02*
X134887219Y-88172053D01*
X134887219Y-88172053D02*
X134887219Y-87933958D01*
X134887219Y-87933958D02*
X134839600Y-87838720D01*
X134839600Y-87838720D02*
X134744361Y-87791101D01*
X134744361Y-87791101D02*
X134649123Y-87791101D01*
X134649123Y-87791101D02*
X134553885Y-87838720D01*
X134553885Y-87838720D02*
X134506266Y-87933958D01*
X134506266Y-87933958D02*
X134506266Y-88172053D01*
X134506266Y-88172053D02*
X134458647Y-88267291D01*
X134887219Y-88743482D02*
X134220552Y-88743482D01*
X134411028Y-88743482D02*
X134315790Y-88791101D01*
X134315790Y-88791101D02*
X134268171Y-88838720D01*
X134268171Y-88838720D02*
X134220552Y-88933958D01*
X134220552Y-88933958D02*
X134220552Y-89029196D01*
X134887219Y-89505387D02*
X134839600Y-89410149D01*
X134839600Y-89410149D02*
X134791980Y-89362530D01*
X134791980Y-89362530D02*
X134696742Y-89314911D01*
X134696742Y-89314911D02*
X134411028Y-89314911D01*
X134411028Y-89314911D02*
X134315790Y-89362530D01*
X134315790Y-89362530D02*
X134268171Y-89410149D01*
X134268171Y-89410149D02*
X134220552Y-89505387D01*
X134220552Y-89505387D02*
X134220552Y-89648244D01*
X134220552Y-89648244D02*
X134268171Y-89743482D01*
X134268171Y-89743482D02*
X134315790Y-89791101D01*
X134315790Y-89791101D02*
X134411028Y-89838720D01*
X134411028Y-89838720D02*
X134696742Y-89838720D01*
X134696742Y-89838720D02*
X134791980Y-89791101D01*
X134791980Y-89791101D02*
X134839600Y-89743482D01*
X134839600Y-89743482D02*
X134887219Y-89648244D01*
X134887219Y-89648244D02*
X134887219Y-89505387D01*
X134220552Y-90695863D02*
X134887219Y-90695863D01*
X134220552Y-90267292D02*
X134744361Y-90267292D01*
X134744361Y-90267292D02*
X134839600Y-90314911D01*
X134839600Y-90314911D02*
X134887219Y-90410149D01*
X134887219Y-90410149D02*
X134887219Y-90553006D01*
X134887219Y-90553006D02*
X134839600Y-90648244D01*
X134839600Y-90648244D02*
X134791980Y-90695863D01*
X134887219Y-91600625D02*
X134363409Y-91600625D01*
X134363409Y-91600625D02*
X134268171Y-91553006D01*
X134268171Y-91553006D02*
X134220552Y-91457768D01*
X134220552Y-91457768D02*
X134220552Y-91267292D01*
X134220552Y-91267292D02*
X134268171Y-91172054D01*
X134839600Y-91600625D02*
X134887219Y-91505387D01*
X134887219Y-91505387D02*
X134887219Y-91267292D01*
X134887219Y-91267292D02*
X134839600Y-91172054D01*
X134839600Y-91172054D02*
X134744361Y-91124435D01*
X134744361Y-91124435D02*
X134649123Y-91124435D01*
X134649123Y-91124435D02*
X134553885Y-91172054D01*
X134553885Y-91172054D02*
X134506266Y-91267292D01*
X134506266Y-91267292D02*
X134506266Y-91505387D01*
X134506266Y-91505387D02*
X134458647Y-91600625D01*
X134220552Y-92076816D02*
X134887219Y-92076816D01*
X134315790Y-92076816D02*
X134268171Y-92124435D01*
X134268171Y-92124435D02*
X134220552Y-92219673D01*
X134220552Y-92219673D02*
X134220552Y-92362530D01*
X134220552Y-92362530D02*
X134268171Y-92457768D01*
X134268171Y-92457768D02*
X134363409Y-92505387D01*
X134363409Y-92505387D02*
X134887219Y-92505387D01*
X134839600Y-93362530D02*
X134887219Y-93267292D01*
X134887219Y-93267292D02*
X134887219Y-93076816D01*
X134887219Y-93076816D02*
X134839600Y-92981578D01*
X134839600Y-92981578D02*
X134744361Y-92933959D01*
X134744361Y-92933959D02*
X134363409Y-92933959D01*
X134363409Y-92933959D02*
X134268171Y-92981578D01*
X134268171Y-92981578D02*
X134220552Y-93076816D01*
X134220552Y-93076816D02*
X134220552Y-93267292D01*
X134220552Y-93267292D02*
X134268171Y-93362530D01*
X134268171Y-93362530D02*
X134363409Y-93410149D01*
X134363409Y-93410149D02*
X134458647Y-93410149D01*
X134458647Y-93410149D02*
X134553885Y-92933959D01*
X134506266Y-93838721D02*
X134506266Y-94600626D01*
X134887219Y-95505387D02*
X133887219Y-95505387D01*
X134839600Y-95505387D02*
X134887219Y-95410149D01*
X134887219Y-95410149D02*
X134887219Y-95219673D01*
X134887219Y-95219673D02*
X134839600Y-95124435D01*
X134839600Y-95124435D02*
X134791980Y-95076816D01*
X134791980Y-95076816D02*
X134696742Y-95029197D01*
X134696742Y-95029197D02*
X134411028Y-95029197D01*
X134411028Y-95029197D02*
X134315790Y-95076816D01*
X134315790Y-95076816D02*
X134268171Y-95124435D01*
X134268171Y-95124435D02*
X134220552Y-95219673D01*
X134220552Y-95219673D02*
X134220552Y-95410149D01*
X134220552Y-95410149D02*
X134268171Y-95505387D01*
X134887219Y-96410149D02*
X134363409Y-96410149D01*
X134363409Y-96410149D02*
X134268171Y-96362530D01*
X134268171Y-96362530D02*
X134220552Y-96267292D01*
X134220552Y-96267292D02*
X134220552Y-96076816D01*
X134220552Y-96076816D02*
X134268171Y-95981578D01*
X134839600Y-96410149D02*
X134887219Y-96314911D01*
X134887219Y-96314911D02*
X134887219Y-96076816D01*
X134887219Y-96076816D02*
X134839600Y-95981578D01*
X134839600Y-95981578D02*
X134744361Y-95933959D01*
X134744361Y-95933959D02*
X134649123Y-95933959D01*
X134649123Y-95933959D02*
X134553885Y-95981578D01*
X134553885Y-95981578D02*
X134506266Y-96076816D01*
X134506266Y-96076816D02*
X134506266Y-96314911D01*
X134506266Y-96314911D02*
X134458647Y-96410149D01*
X134887219Y-97029197D02*
X134839600Y-96933959D01*
X134839600Y-96933959D02*
X134791980Y-96886340D01*
X134791980Y-96886340D02*
X134696742Y-96838721D01*
X134696742Y-96838721D02*
X134411028Y-96838721D01*
X134411028Y-96838721D02*
X134315790Y-96886340D01*
X134315790Y-96886340D02*
X134268171Y-96933959D01*
X134268171Y-96933959D02*
X134220552Y-97029197D01*
X134220552Y-97029197D02*
X134220552Y-97172054D01*
X134220552Y-97172054D02*
X134268171Y-97267292D01*
X134268171Y-97267292D02*
X134315790Y-97314911D01*
X134315790Y-97314911D02*
X134411028Y-97362530D01*
X134411028Y-97362530D02*
X134696742Y-97362530D01*
X134696742Y-97362530D02*
X134791980Y-97314911D01*
X134791980Y-97314911D02*
X134839600Y-97267292D01*
X134839600Y-97267292D02*
X134887219Y-97172054D01*
X134887219Y-97172054D02*
X134887219Y-97029197D01*
X134220552Y-98219673D02*
X134887219Y-98219673D01*
X134220552Y-97791102D02*
X134744361Y-97791102D01*
X134744361Y-97791102D02*
X134839600Y-97838721D01*
X134839600Y-97838721D02*
X134887219Y-97933959D01*
X134887219Y-97933959D02*
X134887219Y-98076816D01*
X134887219Y-98076816D02*
X134839600Y-98172054D01*
X134839600Y-98172054D02*
X134791980Y-98219673D01*
X134887219Y-99124435D02*
X133887219Y-99124435D01*
X134839600Y-99124435D02*
X134887219Y-99029197D01*
X134887219Y-99029197D02*
X134887219Y-98838721D01*
X134887219Y-98838721D02*
X134839600Y-98743483D01*
X134839600Y-98743483D02*
X134791980Y-98695864D01*
X134791980Y-98695864D02*
X134696742Y-98648245D01*
X134696742Y-98648245D02*
X134411028Y-98648245D01*
X134411028Y-98648245D02*
X134315790Y-98695864D01*
X134315790Y-98695864D02*
X134268171Y-98743483D01*
X134268171Y-98743483D02*
X134220552Y-98838721D01*
X134220552Y-98838721D02*
X134220552Y-99029197D01*
X134220552Y-99029197D02*
X134268171Y-99124435D01*
X134887219Y-99600626D02*
X134220552Y-99600626D01*
X133887219Y-99600626D02*
X133934838Y-99553007D01*
X133934838Y-99553007D02*
X133982457Y-99600626D01*
X133982457Y-99600626D02*
X133934838Y-99648245D01*
X133934838Y-99648245D02*
X133887219Y-99600626D01*
X133887219Y-99600626D02*
X133982457Y-99600626D01*
%TO.C,C6*%
D11*
X134660000Y-69792164D02*
X134660000Y-70007836D01*
X135380000Y-69792164D02*
X135380000Y-70007836D01*
%TO.C,J3*%
X126170000Y-72100000D02*
X126170000Y-89990000D01*
X128930000Y-69450000D02*
X127550000Y-69450000D01*
X128930000Y-70830000D02*
X128930000Y-69450000D01*
X128930000Y-72100000D02*
X126170000Y-72100000D01*
X128930000Y-72100000D02*
X128930000Y-89990000D01*
X128930000Y-89990000D02*
X126170000Y-89990000D01*
%TO.C,C5*%
X136255000Y-70568748D02*
X136255000Y-71091252D01*
X137725000Y-70568748D02*
X137725000Y-71091252D01*
%TO.C,Y1*%
X144935000Y-71385000D02*
X144935000Y-70035000D01*
X146685000Y-71385000D02*
X146685000Y-70035000D01*
%TO.C,J2*%
X154110000Y-72100000D02*
X154110000Y-89990000D01*
X156870000Y-69450000D02*
X155490000Y-69450000D01*
X156870000Y-70830000D02*
X156870000Y-69450000D01*
X156870000Y-72100000D02*
X154110000Y-72100000D01*
X156870000Y-72100000D02*
X156870000Y-89990000D01*
X156870000Y-89990000D02*
X154110000Y-89990000D01*
%TD*%
M02*
